<svg width="355" height="65" viewBox="0 0 355 65" fill="none" xmlns="http://www.w3.org/2000/svg">
<path d="M85.3208 50.72C83.8328 50.72 82.4168 50.312 81.0728 49.496C79.7288 48.632 78.7208 47.336 78.0488 45.608C77.8088 44.984 77.6408 44.336 77.5448 43.664C77.4488 42.944 77.4008 42.248 77.4008 41.576C77.4008 40.904 77.5208 40.568 77.7608 40.568C78.0488 40.568 78.1928 40.76 78.1928 41.144C78.1928 43.4 78.7448 45.104 79.8488 46.256C81.0008 47.408 82.4168 47.984 84.0968 47.984C85.7768 47.984 87.3848 47.504 88.9208 46.544C90.5048 45.584 91.9688 44.36 93.3128 42.872C95.5208 40.472 97.3928 38.048 98.9288 35.6C100.465 33.104 101.857 30.56 103.105 27.968C104.401 25.328 105.697 22.592 106.993 19.76C107.809 18.032 108.817 16.52 110.017 15.224C111.265 13.928 112.753 13.04 114.481 12.56L114.553 12.488H110.593C108.913 12.488 107.137 12.56 105.265 12.704C103.393 12.848 101.689 13.16 100.153 13.64C98.6648 14.12 97.5848 14.84 96.9128 15.8C96.4808 16.424 96.2648 17.144 96.2648 17.96C96.2648 18.776 96.4808 19.568 96.9128 20.336C97.3448 21.104 97.8968 21.656 98.5688 21.992C98.6648 22.088 98.7128 22.16 98.7128 22.208C98.7128 22.304 98.5928 22.424 98.3528 22.568C98.1608 22.664 97.9448 22.688 97.7048 22.64C97.3208 22.4 96.8408 22.016 96.2648 21.488C95.6888 20.912 95.1608 20.312 94.6808 19.688C94.2488 19.064 93.9608 18.536 93.8168 18.104C93.6248 17.528 93.5288 16.952 93.5288 16.376C93.5288 15.224 93.9368 14.288 94.7528 13.568C95.6168 12.848 96.7208 12.296 98.0648 11.912C99.4088 11.528 100.849 11.264 102.385 11.12C103.969 10.928 105.481 10.832 106.921 10.832C108.409 10.784 109.681 10.76 110.737 10.76H118.513C118.609 10.76 118.657 10.784 118.657 10.832C118.657 10.976 118.489 11.192 118.153 11.48C117.865 11.72 117.673 11.84 117.577 11.84C116.377 12.08 115.489 12.728 114.913 13.784C114.337 14.792 114.073 16.424 114.121 18.68C114.121 18.68 114.121 19.208 114.121 20.264C114.169 21.32 114.217 22.688 114.265 24.368C114.313 26.048 114.361 27.848 114.409 29.768C114.457 31.688 114.505 33.536 114.553 35.312C114.601 37.088 114.649 38.576 114.697 39.776V40.208L139.681 13.856C141.265 12.176 142.825 10.76 144.361 9.608C145.945 8.408 147.577 7.88 149.257 8.024C149.305 8.024 149.329 8.048 149.329 8.096C149.377 8.096 149.401 8.096 149.401 8.096C149.401 8.24 149.305 8.408 149.113 8.6C148.921 8.792 148.705 8.912 148.465 8.96C147.217 8.912 146.089 9.392 145.081 10.4C144.073 11.408 143.137 12.608 142.273 14C141.841 14.72 141.193 15.872 140.329 17.456C139.465 18.992 138.481 20.816 137.377 22.928C136.321 25.04 135.241 27.272 134.137 29.624C133.033 31.976 132.001 34.28 131.041 36.536C130.129 38.792 129.385 40.856 128.809 42.728C128.233 44.552 127.945 46.04 127.945 47.192C127.945 48.536 128.401 49.208 129.313 49.208C129.697 49.208 130.105 49.112 130.537 48.92C131.161 48.68 131.857 48.32 132.625 47.84C133.393 47.36 134.089 46.808 134.713 46.184C135.961 44.984 137.065 43.76 138.025 42.512C138.985 41.216 139.561 40.472 139.753 40.28C139.897 40.088 140.017 39.992 140.113 39.992C140.305 39.992 140.401 40.136 140.401 40.424C140.401 40.712 140.305 40.976 140.113 41.216C139.729 41.696 139.081 42.536 138.169 43.736C137.257 44.888 136.177 46.064 134.929 47.264C133.729 48.464 132.433 49.376 131.041 50C130.609 50.192 130.153 50.336 129.673 50.432C129.193 50.576 128.713 50.648 128.233 50.648C127.177 50.648 126.217 50.336 125.353 49.712C124.537 49.04 124.129 47.936 124.129 46.4C124.129 44.912 124.465 43.232 125.137 41.36C125.857 39.44 126.649 37.592 127.513 35.816C128.425 33.992 129.169 32.456 129.745 31.208C130.369 29.912 131.161 28.256 132.121 26.24C133.081 24.224 134.185 22.184 135.433 20.12L114.697 42.008C114.649 42.392 114.481 42.776 114.193 43.16C113.905 43.496 113.449 43.784 112.825 44.024C112.489 44.168 112.033 44.552 111.457 45.176C110.881 45.8 110.497 46.232 110.305 46.472C110.305 46.52 110.233 46.544 110.089 46.544C109.945 46.544 109.801 46.496 109.657 46.4C109.513 46.304 109.465 46.232 109.513 46.184C110.761 44.6 111.409 42.416 111.457 39.632L111.529 37.904C111.625 35.888 111.697 33.776 111.745 31.568C111.793 29.312 111.817 27.224 111.817 25.304C111.865 23.336 111.889 21.752 111.889 20.552C111.889 19.304 111.889 18.68 111.889 18.68C111.889 17.528 112.057 16.52 112.393 15.656C112.729 14.792 113.137 14.048 113.617 13.424C112.801 14.048 112.009 14.792 111.241 15.656C110.473 16.52 109.825 17.48 109.297 18.536C108.577 20.024 107.761 21.944 106.849 24.296C105.937 26.648 104.881 29.144 103.681 31.784C102.529 34.424 101.233 37.016 99.7928 39.56C98.4008 42.056 96.8408 44.216 95.1128 46.04C93.9128 47.336 92.3768 48.44 90.5048 49.352C88.6808 50.264 86.9528 50.72 85.3208 50.72ZM143.286 50.576C141.318 50.576 139.95 50.192 139.182 49.424C138.414 48.656 138.03 47.72 138.03 46.616C138.03 45.224 138.39 43.736 139.11 42.152C139.878 40.568 140.598 39.224 141.27 38.12C142.038 36.968 143.07 35.768 144.366 34.52C145.662 33.272 147.078 32.216 148.614 31.352C150.15 30.488 151.638 30.056 153.078 30.056C154.326 30.056 155.19 30.368 155.67 30.992C156.15 31.568 156.39 32.264 156.39 33.08C156.39 34.568 155.934 35.792 155.022 36.752C154.158 37.712 153.078 38.504 151.782 39.128C150.486 39.704 149.238 40.184 148.038 40.568C147.318 40.76 146.478 40.952 145.518 41.144C144.558 41.336 143.646 41.432 142.782 41.432C142.446 42.296 142.182 43.136 141.99 43.952C141.798 44.768 141.702 45.512 141.702 46.184C141.702 47 141.894 47.672 142.278 48.2C142.71 48.728 143.406 48.992 144.366 48.992C144.75 48.992 145.206 48.944 145.734 48.848C146.262 48.752 146.838 48.608 147.462 48.416C148.902 47.936 150.318 47.168 151.71 46.112C153.102 45.056 154.374 43.928 155.526 42.728C156.726 41.48 157.638 40.448 158.262 39.632C158.406 39.776 158.478 39.944 158.478 40.136C158.478 40.376 158.31 40.76 157.974 41.288C157.014 42.632 155.766 44.024 154.23 45.464C152.694 46.904 150.99 48.128 149.118 49.136C147.246 50.096 145.302 50.576 143.286 50.576ZM143.358 39.992C143.982 40.04 144.678 40.04 145.446 39.992C146.262 39.896 147.054 39.728 147.822 39.488C149.79 38.912 151.206 38 152.07 36.752C152.982 35.456 153.438 34.304 153.438 33.296C153.438 32.72 153.318 32.24 153.078 31.856C152.838 31.472 152.454 31.28 151.926 31.28C150.534 31.28 149.286 31.808 148.182 32.864C147.078 33.872 146.118 35.048 145.302 36.392C144.486 37.736 143.838 38.936 143.358 39.992ZM166.904 50.216C166.424 50.216 166.016 50.12 165.68 49.928C165.344 49.736 165.176 49.376 165.176 48.848C165.176 48.176 165.344 47.408 165.68 46.544C166.016 45.68 166.4 44.84 166.832 44.024C167.264 43.16 167.648 42.464 167.984 41.936C166.304 43.712 164.552 45.392 162.728 46.976C161.816 47.744 160.808 48.464 159.704 49.136C158.6 49.808 157.424 50.144 156.176 50.144C155.696 50.144 155.36 50 155.168 49.712C154.976 49.376 154.88 48.992 154.88 48.56C154.88 48.32 154.904 48.152 154.952 48.056C155.192 46.184 155.792 44.24 156.752 42.224C157.712 40.208 158.888 38.312 160.28 36.536C161.672 34.76 163.088 33.32 164.528 32.216C165.632 31.4 166.688 30.896 167.696 30.704C168.704 30.464 169.808 30.344 171.008 30.344H173.384C174.152 29.048 174.944 27.608 175.76 26.024C176.624 24.392 177.464 22.784 178.28 21.2C179.144 19.616 179.936 18.224 180.656 17.024C182.624 13.664 184.784 10.976 187.136 8.96C189.536 6.944 192.2 5.936 195.128 5.936C195.752 5.936 196.328 6.128 196.856 6.512C197.384 6.848 197.624 7.376 197.576 8.096L197.432 10.688C197.432 10.736 197.384 10.808 197.288 10.904C197.192 10.952 197.12 10.976 197.072 10.976C197.024 10.976 196.952 10.928 196.856 10.832C196.712 9.968 196.28 9.32 195.56 8.888C194.84 8.408 193.952 8.168 192.896 8.168C192.56 8.168 192.176 8.192 191.744 8.24C191.36 8.288 190.976 8.384 190.592 8.528C189.248 9.008 187.976 9.992 186.776 11.48C185.576 12.92 184.28 14.84 182.888 17.24C182.408 18.152 181.784 19.352 181.016 20.84C180.248 22.28 179.432 23.84 178.568 25.52C177.752 27.2 176.96 28.832 176.192 30.416C175.472 32 174.848 33.344 174.32 34.448C174.08 35.024 173.672 35.912 173.096 37.112C172.52 38.264 171.896 39.536 171.224 40.928C170.6 42.272 170.048 43.52 169.568 44.672C169.136 45.824 168.92 46.64 168.92 47.12C168.92 47.792 169.208 48.128 169.784 48.128C170.36 48.128 171.128 47.792 172.088 47.12C173.048 46.4 174.032 45.536 175.04 44.528C176.096 43.472 177.032 42.464 177.848 41.504C178.712 40.544 179.312 39.824 179.648 39.344C179.792 39.488 179.864 39.656 179.864 39.848C179.864 40.184 179.72 40.52 179.432 40.856C179.192 41.192 178.976 41.48 178.784 41.72C177.92 42.872 176.84 44.12 175.544 45.464C174.296 46.76 172.928 47.888 171.44 48.848C169.952 49.76 168.44 50.216 166.904 50.216ZM159.128 47.696C159.704 47.696 160.496 47.288 161.504 46.472C162.56 45.608 163.688 44.552 164.888 43.304C166.088 42.008 167.216 40.664 168.272 39.272C169.328 37.832 170.192 36.536 170.864 35.384C171.584 34.184 171.944 33.272 171.944 32.648C171.944 32.12 171.776 31.76 171.44 31.568C171.152 31.376 170.768 31.28 170.288 31.28C169.52 31.28 168.68 31.568 167.768 32.144C166.904 32.672 166.208 33.2 165.68 33.728C165.104 34.256 164.408 35.096 163.592 36.248C162.824 37.352 162.056 38.576 161.288 39.92C160.52 41.264 159.872 42.56 159.344 43.808C158.816 45.056 158.552 46.064 158.552 46.832C158.552 47.408 158.744 47.696 159.128 47.696ZM193.252 22.496C192.58 22.496 192.1 22.28 191.812 21.848C191.62 21.608 191.524 21.296 191.524 20.912C191.524 20.144 191.884 19.52 192.604 19.04C193.132 18.752 193.612 18.608 194.044 18.608C194.764 18.608 195.268 18.824 195.556 19.256C195.748 19.496 195.844 19.808 195.844 20.192C195.844 20.96 195.46 21.584 194.692 22.064C194.26 22.352 193.78 22.496 193.252 22.496ZM180.724 50.216C180.244 50.216 179.836 50.12 179.5 49.928C179.212 49.736 179.068 49.376 179.068 48.848C179.068 48.176 179.236 47.384 179.572 46.472C179.956 45.56 180.364 44.648 180.796 43.736C181.276 42.824 181.636 42.08 181.876 41.504C182.212 40.832 182.62 39.968 183.1 38.912C183.628 37.808 184.108 36.776 184.54 35.816C185.02 34.808 185.356 34.112 185.548 33.728C184.876 34.448 184.06 35.36 183.1 36.464C182.188 37.52 181.324 38.552 180.508 39.56C179.692 40.568 179.068 41.36 178.636 41.936C178.492 42.128 178.372 42.224 178.276 42.224C178.18 42.224 178.132 42.104 178.132 41.864C178.132 41.48 178.252 41.12 178.492 40.784C179.404 39.632 180.412 38.336 181.516 36.896C182.668 35.456 183.7 34.136 184.612 32.936C185.524 31.688 186.1 30.872 186.34 30.488C186.868 30.392 187.636 30.248 188.644 30.056C189.7 29.864 190.42 29.6 190.804 29.264C190.948 29.12 191.092 29.048 191.236 29.048C191.332 29.048 191.38 29.144 191.38 29.336C191.428 29.48 191.38 29.648 191.236 29.84C190.948 30.176 190.444 30.992 189.724 32.288C189.004 33.584 188.236 35.024 187.42 36.608C186.652 38.144 185.932 39.536 185.26 40.784C184.588 42.08 184.012 43.328 183.532 44.528C183.052 45.728 182.812 46.592 182.812 47.12C182.812 47.792 183.148 48.128 183.82 48.128C184.444 48.128 185.236 47.744 186.196 46.976C187.204 46.208 188.212 45.296 189.22 44.24C190.228 43.136 191.116 42.128 191.884 41.216C192.124 40.928 192.412 40.592 192.748 40.208C193.132 39.776 193.372 39.512 193.468 39.416C193.564 39.512 193.612 39.68 193.612 39.92C193.564 40.256 193.444 40.592 193.252 40.928C193.06 41.216 192.868 41.48 192.676 41.72C191.668 42.968 190.564 44.264 189.364 45.608C188.164 46.904 186.844 48.008 185.404 48.92C183.964 49.784 182.404 50.216 180.724 50.216ZM195.008 50.216C194.528 50.216 194.12 50.12 193.784 49.928C193.448 49.736 193.28 49.376 193.28 48.848C193.28 48.176 193.448 47.384 193.784 46.472C194.168 45.56 194.576 44.648 195.008 43.736C195.44 42.824 195.8 42.08 196.088 41.504C196.328 41.072 196.64 40.4 197.024 39.488C197.456 38.528 197.888 37.544 198.32 36.536C198.8 35.48 199.184 34.592 199.472 33.872C199.808 33.152 199.976 32.792 199.976 32.792C199.544 33.272 198.968 33.944 198.248 34.808C197.576 35.672 196.832 36.584 196.016 37.544C195.248 38.456 194.528 39.32 193.856 40.136C193.232 40.952 192.776 41.552 192.488 41.936C192.344 42.128 192.224 42.224 192.128 42.224C192.032 42.224 191.984 42.104 191.984 41.864C191.984 41.48 192.104 41.12 192.344 40.784C192.92 40.064 193.616 39.2 194.432 38.192C195.248 37.136 196.064 36.08 196.88 35.024C197.744 33.968 198.488 33.032 199.112 32.216C198.728 32.216 198.224 32.24 197.6 32.288C197.024 32.336 196.496 32.408 196.016 32.504C195.536 32.552 195.272 32.576 195.224 32.576C194.984 32.576 195.008 32.384 195.296 32C195.584 31.616 195.968 31.232 196.448 30.848C196.928 30.464 197.288 30.272 197.528 30.272C197.576 30.272 197.96 30.296 198.68 30.344C199.4 30.344 199.928 30.344 200.264 30.344C201.224 29.048 202.16 27.56 203.072 25.88C204.032 24.2 204.968 22.352 205.88 20.336C206.264 20.288 206.912 20.024 207.824 19.544C208.784 19.016 209.528 18.488 210.056 17.96C210.296 17.72 210.488 17.6 210.632 17.6C210.92 17.6 210.92 17.792 210.632 18.176C210.296 18.56 209.72 19.376 208.904 20.624C208.088 21.824 207.176 23.288 206.168 25.016C205.16 26.696 204.2 28.472 203.288 30.344H209.12C209.648 30.344 209.912 30.416 209.912 30.56C209.912 30.752 209.552 30.944 208.832 31.136C208.016 31.376 207.152 31.52 206.24 31.568C205.376 31.616 204.56 31.712 203.792 31.856C203.072 32 202.544 32.312 202.208 32.792C201.92 33.128 201.512 33.848 200.984 34.952C200.456 36.056 199.88 37.328 199.256 38.768C198.68 40.16 198.176 41.576 197.744 43.016C197.312 44.408 197.048 45.584 196.952 46.544V46.832C196.952 47.216 197.072 47.528 197.312 47.768C197.552 48.008 197.792 48.128 198.032 48.128C198.656 48.128 199.448 47.744 200.408 46.976C201.416 46.208 202.448 45.296 203.504 44.24C204.56 43.136 205.472 42.128 206.24 41.216C206.576 40.832 206.864 40.472 207.104 40.136C207.392 39.8 207.56 39.584 207.608 39.488C207.704 39.68 207.752 39.824 207.752 39.92C207.752 40.208 207.656 40.52 207.464 40.856C207.32 41.192 207.152 41.48 206.96 41.72C206.048 42.92 204.944 44.192 203.648 45.536C202.352 46.832 200.96 47.936 199.472 48.848C198.032 49.76 196.544 50.216 195.008 50.216ZM210.505 50.576C208.537 50.576 207.169 50.192 206.401 49.424C205.633 48.656 205.249 47.72 205.249 46.616C205.249 45.224 205.609 43.736 206.329 42.152C207.097 40.568 207.817 39.224 208.489 38.12C209.257 36.968 210.289 35.768 211.585 34.52C212.881 33.272 214.297 32.216 215.833 31.352C217.369 30.488 218.857 30.056 220.297 30.056C221.545 30.056 222.409 30.368 222.889 30.992C223.369 31.568 223.609 32.264 223.609 33.08C223.609 34.568 223.153 35.792 222.241 36.752C221.377 37.712 220.297 38.504 219.001 39.128C217.705 39.704 216.457 40.184 215.257 40.568C214.537 40.76 213.697 40.952 212.737 41.144C211.777 41.336 210.865 41.432 210.001 41.432C209.665 42.296 209.401 43.136 209.209 43.952C209.017 44.768 208.921 45.512 208.921 46.184C208.921 47 209.113 47.672 209.497 48.2C209.929 48.728 210.625 48.992 211.585 48.992C211.969 48.992 212.425 48.944 212.953 48.848C213.481 48.752 214.057 48.608 214.681 48.416C216.121 47.936 217.537 47.168 218.929 46.112C220.321 45.056 221.593 43.928 222.745 42.728C223.945 41.48 224.857 40.448 225.481 39.632C225.625 39.776 225.697 39.944 225.697 40.136C225.697 40.376 225.529 40.76 225.193 41.288C224.233 42.632 222.985 44.024 221.449 45.464C219.913 46.904 218.209 48.128 216.337 49.136C214.465 50.096 212.521 50.576 210.505 50.576ZM210.577 39.992C211.201 40.04 211.897 40.04 212.665 39.992C213.481 39.896 214.273 39.728 215.041 39.488C217.009 38.912 218.425 38 219.289 36.752C220.201 35.456 220.657 34.304 220.657 33.296C220.657 32.72 220.537 32.24 220.297 31.856C220.057 31.472 219.673 31.28 219.145 31.28C217.753 31.28 216.505 31.808 215.401 32.864C214.297 33.872 213.337 35.048 212.521 36.392C211.705 37.736 211.057 38.936 210.577 39.992ZM224.763 51.008C224.571 51.008 224.571 50.816 224.763 50.432C225.003 50 225.219 49.52 225.411 48.992C225.651 48.464 225.891 47.888 226.131 47.264C226.611 46.112 227.139 44.816 227.715 43.376C228.291 41.936 228.843 40.544 229.371 39.2C229.899 37.808 230.355 36.632 230.739 35.672C231.171 34.664 231.459 34.016 231.603 33.728C230.931 34.448 230.115 35.36 229.155 36.464C228.243 37.52 227.379 38.552 226.563 39.56C225.747 40.568 225.123 41.36 224.691 41.936C224.547 42.128 224.427 42.224 224.331 42.224C224.235 42.224 224.187 42.104 224.187 41.864C224.187 41.48 224.307 41.12 224.547 40.784C225.459 39.632 226.467 38.336 227.571 36.896C228.723 35.456 229.755 34.136 230.667 32.936C231.579 31.688 232.155 30.872 232.395 30.488C232.923 30.392 233.691 30.248 234.699 30.056C235.755 29.864 236.475 29.6 236.859 29.264C237.003 29.12 237.147 29.048 237.291 29.048C237.387 29.048 237.435 29.144 237.435 29.336C237.483 29.48 237.435 29.648 237.291 29.84C237.003 30.128 236.571 30.752 235.995 31.712C235.467 32.672 234.867 33.776 234.195 35.024C233.523 36.272 232.875 37.472 232.251 38.624C232.731 37.904 233.355 37.064 234.123 36.104C234.939 35.096 235.827 34.136 236.787 33.224C237.747 32.264 238.707 31.472 239.667 30.848C240.675 30.224 241.611 29.912 242.475 29.912C243.099 29.912 243.627 30.056 244.059 30.344C244.491 30.584 244.827 31.04 245.067 31.712C245.211 32.048 245.283 32.432 245.283 32.864C245.283 33.68 245.067 34.472 244.635 35.24C244.251 35.96 243.963 36.512 243.771 36.896C243.723 37.04 243.555 37.184 243.267 37.328C242.979 37.424 242.859 37.376 242.907 37.184C242.955 36.944 242.979 36.704 242.979 36.464C243.027 36.224 243.051 35.96 243.051 35.672C243.051 34.856 242.883 34.112 242.547 33.44C242.259 32.768 241.707 32.432 240.891 32.432C240.123 32.432 239.187 32.912 238.083 33.872C236.979 34.832 235.875 35.936 234.771 37.184C233.379 38.816 232.275 40.376 231.459 41.864C230.643 43.304 229.971 44.72 229.443 46.112C229.155 46.88 228.867 47.648 228.579 48.416C228.291 49.136 228.075 49.712 227.931 50.144C227.307 50.192 226.683 50.336 226.059 50.576C225.435 50.864 225.003 51.008 224.763 51.008ZM244.38 51.008C244.188 51.008 244.188 50.816 244.38 50.432C244.62 50 244.836 49.52 245.028 48.992C245.268 48.464 245.508 47.888 245.748 47.264C246.228 46.112 246.756 44.816 247.332 43.376C247.908 41.936 248.46 40.544 248.988 39.2C249.516 37.808 249.972 36.632 250.356 35.672C250.788 34.664 251.076 34.016 251.22 33.728C250.548 34.448 249.732 35.36 248.772 36.464C247.86 37.52 246.996 38.552 246.18 39.56C245.364 40.568 244.74 41.36 244.308 41.936C244.164 42.128 244.044 42.224 243.948 42.224C243.852 42.224 243.804 42.104 243.804 41.864C243.804 41.48 243.924 41.12 244.164 40.784C245.076 39.632 246.084 38.336 247.188 36.896C248.34 35.456 249.372 34.136 250.284 32.936C251.196 31.688 251.772 30.872 252.012 30.488C252.54 30.392 253.308 30.248 254.316 30.056C255.372 29.864 256.092 29.6 256.476 29.264C256.62 29.12 256.764 29.048 256.908 29.048C257.004 29.048 257.052 29.144 257.052 29.336C257.1 29.48 257.052 29.648 256.908 29.84C256.62 30.128 256.188 30.752 255.612 31.712C255.084 32.672 254.484 33.776 253.812 35.024C253.14 36.272 252.492 37.472 251.868 38.624C252.348 37.904 252.972 37.064 253.74 36.104C254.556 35.096 255.444 34.136 256.404 33.224C257.364 32.264 258.324 31.472 259.284 30.848C260.292 30.224 261.228 29.912 262.092 29.912C262.716 29.912 263.244 30.056 263.676 30.344C264.108 30.584 264.444 31.04 264.684 31.712C264.828 32.048 264.9 32.432 264.9 32.864C264.9 33.68 264.684 34.472 264.252 35.24C263.868 35.96 263.58 36.512 263.388 36.896C263.34 37.04 263.172 37.184 262.884 37.328C262.596 37.424 262.476 37.376 262.524 37.184C262.572 36.944 262.596 36.704 262.596 36.464C262.644 36.224 262.668 35.96 262.668 35.672C262.668 34.856 262.5 34.112 262.164 33.44C261.876 32.768 261.324 32.432 260.508 32.432C259.74 32.432 258.804 32.912 257.7 33.872C256.596 34.832 255.492 35.936 254.388 37.184C252.996 38.816 251.892 40.376 251.076 41.864C250.26 43.304 249.588 44.72 249.06 46.112C248.772 46.88 248.484 47.648 248.196 48.416C247.908 49.136 247.692 49.712 247.548 50.144C246.924 50.192 246.3 50.336 245.676 50.576C245.052 50.864 244.62 51.008 244.38 51.008ZM273.357 50.216C272.877 50.216 272.469 50.12 272.133 49.928C271.797 49.736 271.629 49.376 271.629 48.848C271.629 48.176 271.797 47.408 272.133 46.544C272.469 45.68 272.853 44.84 273.285 44.024C273.717 43.16 274.101 42.464 274.437 41.936C272.757 43.712 271.005 45.392 269.181 46.976C268.269 47.744 267.261 48.464 266.157 49.136C265.053 49.808 263.877 50.144 262.629 50.144C262.149 50.144 261.813 50 261.621 49.712C261.429 49.376 261.333 48.992 261.333 48.56C261.333 48.32 261.357 48.152 261.405 48.056C261.645 46.184 262.245 44.24 263.205 42.224C264.165 40.208 265.341 38.312 266.733 36.536C268.125 34.76 269.541 33.32 270.981 32.216C272.613 30.968 274.413 30.344 276.381 30.344H284.661C284.901 30.344 285.021 30.44 285.021 30.632C285.021 31.016 284.805 31.208 284.373 31.208C283.893 31.208 283.413 31.52 282.933 32.144C282.453 32.72 282.093 33.2 281.853 33.584C281.517 34.112 280.989 35 280.269 36.248C279.549 37.496 278.805 38.864 278.037 40.352C277.317 41.792 276.693 43.136 276.165 44.384C275.637 45.632 275.373 46.544 275.373 47.12C275.373 47.792 275.709 48.128 276.381 48.128C277.101 48.128 277.917 47.792 278.829 47.12C279.741 46.448 280.653 45.632 281.565 44.672C282.525 43.664 283.389 42.68 284.157 41.72C284.973 40.712 285.621 39.92 286.101 39.344C286.389 39.632 286.365 40.04 286.029 40.568C285.741 41.048 285.477 41.432 285.237 41.72C284.277 42.968 283.173 44.264 281.925 45.608C280.677 46.904 279.309 48.008 277.821 48.92C276.381 49.784 274.893 50.216 273.357 50.216ZM265.581 47.696C266.157 47.696 266.949 47.288 267.957 46.472C269.013 45.608 270.141 44.552 271.341 43.304C272.541 42.008 273.669 40.664 274.725 39.272C275.781 37.832 276.645 36.536 277.317 35.384C278.037 34.184 278.397 33.272 278.397 32.648C278.397 32.12 278.229 31.76 277.893 31.568C277.605 31.376 277.221 31.28 276.741 31.28C275.973 31.28 275.133 31.568 274.221 32.144C273.357 32.672 272.661 33.2 272.133 33.728C271.557 34.256 270.861 35.096 270.045 36.248C269.277 37.352 268.509 38.576 267.741 39.92C266.973 41.264 266.325 42.56 265.797 43.808C265.269 45.056 265.005 46.064 265.005 46.832C265.005 47.408 265.197 47.696 265.581 47.696ZM284.517 25.592C284.037 25.832 283.317 25.544 282.357 24.728C281.829 24.248 281.181 23.624 280.413 22.856C279.693 22.088 279.213 21.584 278.973 21.344C278.733 20.96 278.445 20.888 278.109 21.128C277.869 21.32 277.341 21.704 276.525 22.28C275.757 22.808 274.965 23.336 274.149 23.864C273.333 24.392 272.709 24.776 272.277 25.016C271.701 25.304 271.221 25.352 270.837 25.16C272.229 24.2 273.621 23.216 275.013 22.208C276.453 21.2 277.773 20.168 278.973 19.112H279.837C280.317 19.88 280.989 20.744 281.853 21.704C282.765 22.664 283.725 23.48 284.733 24.152C284.925 24.248 285.117 24.368 285.309 24.512C285.501 24.656 285.741 24.728 286.029 24.728V24.944C285.885 24.992 285.621 25.112 285.237 25.304C284.853 25.448 284.613 25.544 284.517 25.592ZM285.161 51.08C284.969 51.08 284.969 50.864 285.161 50.432C285.401 50 285.617 49.52 285.809 48.992C286.049 48.464 286.289 47.888 286.529 47.264C287.009 46.112 287.537 44.816 288.113 43.376C288.689 41.936 289.241 40.544 289.769 39.2C290.297 37.808 290.753 36.632 291.137 35.672C291.569 34.664 291.857 34.016 292.001 33.728C291.329 34.448 290.513 35.36 289.553 36.464C288.641 37.52 287.777 38.552 286.961 39.56C286.145 40.568 285.521 41.36 285.089 41.936C284.945 42.128 284.825 42.224 284.729 42.224C284.633 42.224 284.585 42.104 284.585 41.864C284.585 41.48 284.705 41.12 284.945 40.784C285.857 39.632 286.865 38.336 287.969 36.896C289.121 35.456 290.153 34.136 291.065 32.936C291.977 31.688 292.553 30.872 292.793 30.488C293.321 30.392 294.089 30.248 295.097 30.056C296.153 29.864 296.873 29.6 297.257 29.264C297.401 29.12 297.545 29.048 297.689 29.048C297.785 29.048 297.833 29.144 297.833 29.336C297.881 29.48 297.833 29.648 297.689 29.84C297.401 30.176 296.897 30.968 296.177 32.216C295.505 33.416 294.761 34.76 293.945 36.248C293.177 37.736 292.457 39.08 291.785 40.28C292.361 39.512 292.985 38.768 293.657 38.048C294.329 37.328 294.977 36.632 295.601 35.96C296.177 35.384 296.969 34.664 297.977 33.8C298.985 32.936 300.041 32.144 301.145 31.424C302.249 30.704 303.209 30.296 304.025 30.2C304.217 30.152 304.385 30.128 304.529 30.128C304.721 30.128 304.865 30.128 304.961 30.128C306.017 30.128 306.545 30.512 306.545 31.28C306.545 31.856 306.233 32.624 305.609 33.584C305.273 34.112 304.745 35 304.025 36.248C303.353 37.448 302.657 38.768 301.937 40.208C301.265 41.6 300.665 42.92 300.137 44.168C299.657 45.368 299.417 46.256 299.417 46.832C299.417 47.504 299.753 47.84 300.425 47.84C301.241 47.84 302.129 47.432 303.089 46.616C304.097 45.8 305.177 44.768 306.329 43.52C307.481 42.224 308.633 40.856 309.785 39.416C309.881 39.512 309.929 39.68 309.929 39.92C309.929 40.256 309.809 40.592 309.569 40.928C309.377 41.216 309.185 41.48 308.993 41.72C308.513 42.344 307.865 43.136 307.049 44.096C306.281 45.008 305.489 45.92 304.673 46.832C303.857 47.696 303.113 48.392 302.441 48.92C301.961 49.256 301.337 49.616 300.569 50C299.801 50.384 299.033 50.576 298.265 50.576C297.401 50.576 296.801 50.36 296.465 49.928C296.129 49.448 295.961 48.872 295.961 48.2C295.961 47.432 296.105 46.616 296.393 45.752C296.681 44.888 296.993 44.072 297.329 43.304C297.713 42.488 298.001 41.888 298.193 41.504C299.057 39.824 299.849 38.24 300.569 36.752C301.289 35.264 301.793 34.208 302.081 33.584C302.225 33.296 302.297 33.056 302.297 32.864C302.297 32.528 302.033 32.504 301.505 32.792C300.977 33.08 300.329 33.512 299.561 34.088C298.841 34.664 298.169 35.24 297.545 35.816C296.921 36.344 296.513 36.704 296.321 36.896C294.545 38.768 292.985 40.856 291.641 43.16C290.345 45.416 289.241 47.744 288.329 50.144C287.705 50.192 287.081 50.36 286.457 50.648C285.833 50.936 285.401 51.08 285.161 51.08ZM312.599 50.576C310.631 50.576 309.263 50.192 308.495 49.424C307.727 48.656 307.343 47.72 307.343 46.616C307.343 45.224 307.703 43.736 308.423 42.152C309.191 40.568 309.911 39.224 310.583 38.12C311.351 36.968 312.383 35.768 313.679 34.52C314.975 33.272 316.391 32.216 317.927 31.352C319.463 30.488 320.951 30.056 322.391 30.056C323.639 30.056 324.503 30.368 324.983 30.992C325.463 31.568 325.703 32.264 325.703 33.08C325.703 34.568 325.247 35.792 324.335 36.752C323.471 37.712 322.391 38.504 321.095 39.128C319.799 39.704 318.551 40.184 317.351 40.568C316.631 40.76 315.791 40.952 314.831 41.144C313.871 41.336 312.959 41.432 312.095 41.432C311.759 42.296 311.495 43.136 311.303 43.952C311.111 44.768 311.015 45.512 311.015 46.184C311.015 47 311.207 47.672 311.591 48.2C312.023 48.728 312.719 48.992 313.679 48.992C314.063 48.992 314.519 48.944 315.047 48.848C315.575 48.752 316.151 48.608 316.775 48.416C318.215 47.936 319.631 47.168 321.023 46.112C322.415 45.056 323.687 43.928 324.839 42.728C326.039 41.48 326.951 40.448 327.575 39.632C327.719 39.776 327.791 39.944 327.791 40.136C327.791 40.376 327.623 40.76 327.287 41.288C326.327 42.632 325.079 44.024 323.543 45.464C322.007 46.904 320.303 48.128 318.431 49.136C316.559 50.096 314.615 50.576 312.599 50.576ZM312.671 39.992C313.295 40.04 313.991 40.04 314.759 39.992C315.575 39.896 316.367 39.728 317.135 39.488C319.103 38.912 320.519 38 321.383 36.752C322.295 35.456 322.751 34.304 322.751 33.296C322.751 32.72 322.631 32.24 322.391 31.856C322.151 31.472 321.767 31.28 321.239 31.28C319.847 31.28 318.599 31.808 317.495 32.864C316.391 33.872 315.431 35.048 314.615 36.392C313.799 37.736 313.151 38.936 312.671 39.992ZM327.577 50.144C326.809 50.144 326.113 50 325.489 49.712C324.913 49.376 324.625 48.68 324.625 47.624C324.625 45.944 325.057 44.264 325.921 42.584C326.785 40.856 327.673 39.344 328.585 38.048C329.401 36.944 330.313 35.912 331.321 34.952C332.377 33.944 333.505 33.08 334.705 32.36C335.473 31.88 336.505 31.376 337.801 30.848C339.145 30.272 340.273 29.984 341.185 29.984C341.953 29.984 342.625 30.2 343.201 30.632C343.777 31.016 344.065 31.736 344.065 32.792C344.065 34.424 343.633 36.104 342.769 37.832C341.953 39.512 341.089 41 340.177 42.296C339.745 42.872 339.313 43.424 338.881 43.952C338.449 44.432 337.969 44.936 337.441 45.464C339.217 45.464 340.849 44.96 342.337 43.952C343.825 42.896 345.121 41.624 346.225 40.136L346.369 39.992C346.513 39.992 346.585 40.136 346.585 40.424C346.585 40.76 346.489 41.072 346.297 41.36C345.337 42.704 344.137 43.904 342.697 44.96C341.257 45.968 339.625 46.472 337.801 46.472C337.609 46.472 337.417 46.472 337.225 46.472C337.033 46.472 336.841 46.448 336.649 46.4C333.961 48.896 330.937 50.144 327.577 50.144ZM329.449 48.92C330.121 48.92 330.841 48.68 331.609 48.2C332.425 47.72 333.049 47.264 333.481 46.832C334.297 46.016 335.041 45.152 335.713 44.24C336.385 43.28 337.009 42.32 337.585 41.36C338.257 40.208 338.929 38.84 339.601 37.256C340.273 35.672 340.609 34.184 340.609 32.792C340.609 31.688 340.225 31.136 339.457 31.136C338.833 31.136 338.065 31.4 337.153 31.928C336.289 32.456 335.641 32.936 335.209 33.368C333.577 35.048 332.209 36.872 331.105 38.84C330.481 39.944 329.809 41.24 329.089 42.728C328.369 44.216 328.009 45.584 328.009 46.832C328.009 47.024 328.009 47.216 328.009 47.408C328.057 47.552 328.105 47.72 328.153 47.912C328.345 48.584 328.777 48.92 329.449 48.92Z" fill="white"/>
<g clip-path="url(#clip0_17_1047)">
<path d="M62.0133 29.5138H59.6138C58.9778 23.7036 56.5126 18.4378 52.8054 14.3056L56.016 11.0949C56.5992 10.5127 56.5992 9.56623 56.016 8.98402C55.4328 8.40081 54.4883 8.40081 53.9051 8.98402L50.6945 12.1947C46.5612 8.48739 41.2954 6.02119 35.4852 5.38623V2.98571C35.4852 1.3366 34.1486 0 32.4995 0C30.8504 0 29.5138 1.3366 29.5138 2.98571V5.38623C23.7046 6.02219 18.4388 8.48739 14.3056 12.1947L11.0949 8.98402C10.5117 8.40081 9.56723 8.40081 8.98402 8.98402C8.40081 9.56623 8.40081 10.5127 8.98402 11.0949L12.1947 14.3056C8.48739 18.4388 6.02119 23.7046 5.38623 29.5148H2.98571C1.33661 29.5148 0 30.8514 0 32.5005C0 34.1496 1.33661 35.4862 2.98571 35.4862H5.38523C6.02119 41.2964 8.4864 46.5622 12.1937 50.6954L8.98302 53.9061C8.39981 54.4883 8.39981 55.4348 8.98302 56.017C9.27462 56.3086 9.6568 56.4539 10.039 56.4539C10.4211 56.4539 10.8033 56.3086 11.0949 56.017L14.3056 52.8063C18.4388 56.5136 23.7046 58.9798 29.5148 59.6148V62.0143C29.5148 63.6634 30.8514 65 32.5005 65C34.1496 65 35.4862 63.6634 35.4862 62.0143V59.6148C41.2964 58.9788 46.5622 56.5136 50.6964 52.8063L53.9071 56.017C54.1987 56.3086 54.5809 56.4539 54.963 56.4539C55.3452 56.4539 55.7274 56.3086 56.019 56.017C56.6022 55.4348 56.6022 54.4883 56.019 53.9061L52.8083 50.6954C56.5156 46.5622 58.9818 41.2964 59.6168 35.4862H62.0163C63.6654 35.4862 65.002 34.1496 65.002 32.5005C65.002 30.8514 63.6624 29.5138 62.0133 29.5138ZM48.0382 19.0727C50.5412 21.9649 52.2401 25.5567 52.8203 29.5138H37.5961L48.0382 19.0727ZM35.4852 27.4039V12.1787C39.4433 12.759 43.0351 14.4578 45.9273 16.9618L35.4852 27.4039ZM29.5138 27.4029L19.0727 16.9618C21.9649 14.4588 25.5567 12.759 29.5138 12.1797V27.4029ZM27.4029 29.5138H12.1797C12.759 25.5557 14.4588 21.9649 16.9618 19.0727L27.4029 29.5138ZM27.4029 35.4852L16.9618 45.9273C14.4588 43.0351 12.7599 39.4433 12.1797 35.4862H27.4029V35.4852ZM29.5138 37.5971V52.8203C25.5557 52.2401 21.9649 50.5412 19.0727 48.0382L29.5138 37.5971ZM35.4852 37.5961L45.9273 48.0382C43.0351 50.5412 39.4433 52.2411 35.4852 52.8213V37.5961ZM37.5961 35.4852H52.8193C52.2401 39.4433 50.5402 43.0341 48.0372 45.9263L37.5961 35.4852ZM56.6052 29.5138H55.8518C55.2437 24.7327 53.1985 20.3954 50.161 16.9489L50.6905 16.4194C53.8623 20.0043 55.9911 24.5266 56.6052 29.5138ZM48.5796 14.3095L48.0501 14.839C44.6036 11.8005 40.2663 9.75632 35.4842 9.14723V8.39483C40.4724 9.0089 44.9957 11.1377 48.5796 14.3095ZM29.5138 8.39483V9.14723C24.7327 9.75532 20.3954 11.8005 16.9489 14.838L16.4194 14.3085C20.0033 11.1377 24.5267 9.0089 29.5138 8.39483ZM14.3085 16.4204L14.838 16.9499C11.8005 20.3964 9.75533 24.7327 9.14723 29.5148H8.39484C9.0089 24.5266 11.1377 20.0043 14.3085 16.4204ZM8.39484 35.4852H9.14823C9.75632 40.2663 11.8015 44.6036 14.839 48.0501L14.3095 48.5796C11.1377 44.9957 9.0089 40.4724 8.39484 35.4852ZM16.4194 50.6905L16.9489 50.161C20.3954 53.1995 24.7317 55.2437 29.5138 55.8518V56.6042C24.5267 55.9911 20.0033 53.8623 16.4194 50.6905ZM35.4852 56.6052V55.8528C40.2673 55.2447 44.6046 53.1995 48.0511 50.161L48.5806 50.6905C44.9957 53.8623 40.4724 55.9911 35.4852 56.6052ZM50.6905 48.5796L50.161 48.0501C53.1985 44.6036 55.2437 40.2673 55.8518 35.4852H56.6052C55.9911 40.4724 53.8623 44.9957 50.6905 48.5796Z" fill="white"/>
</g>
<defs>
<clipPath id="clip0_17_1047">
<rect width="65" height="65" fill="white"/>
</clipPath>
</defs>
</svg>
